<svg width="131" height="32" viewBox="0 0 131 32" fill="none" xmlns="http://www.w3.org/2000/svg">
<g clipPath="url(#clip0_1090_1941)">
<path d="M60.4559 15.154C60.0157 9.87421 56.312 6.31725 51.0297 5.96307C48.5454 5.79863 46.0611 5.84923 43.5768 5.82393C43.4149 5.82393 43.2352 5.78092 43.0708 5.95801V26.4826C44.1839 26.6319 51.5989 26.5332 52.6159 26.3764C55.2444 25.9691 57.3644 24.7775 58.814 22.4754C60.2409 20.2187 60.6735 17.7648 60.4559 15.154ZM57.6275 20.1378C56.5498 22.6676 54.5133 23.9958 51.8089 24.307C49.6695 24.5153 47.5193 24.5922 45.3704 24.5372C45.2746 24.5267 45.1798 24.5081 45.0871 24.4815V7.99454C45.1554 7.95912 45.2085 7.90852 45.2642 7.90852C47.6422 7.88322 50.0304 7.80733 52.368 8.35884C54.9965 8.97865 56.8407 10.5446 57.7565 13.1074C58.6262 15.379 58.5799 17.8996 57.6275 20.1378Z" fill="#0F46D2"/>
<path d="M116.426 5.87396C116.325 5.82956 116.216 5.80664 116.106 5.80664C115.996 5.80664 115.887 5.82956 115.786 5.87396L106.043 26.5048H108.432C109.496 24.255 110.564 22.0026 111.637 19.7476H120.519C121.607 22.0245 122.685 24.276 123.737 26.4745H126.014L116.426 5.87396ZM112.616 17.663C113.777 15.2192 114.906 12.8563 116.102 10.3265C117.268 12.8158 118.379 15.1914 119.54 17.663H112.616Z" fill="#0F46D2"/>
<path d="M79.1359 18.776C79.3054 14.4373 76.0723 10.7438 71.8475 10.5287C67.3696 10.3036 63.9417 13.2331 63.418 17.888C62.9879 21.7182 65.6164 25.8393 69.6541 26.5123C74.2533 27.2712 77.5522 24.8375 78.592 21.994L77.0058 21.1541C75.0224 24.84 71.3364 25.2727 69.0469 24.3821C66.9573 23.5827 65.3913 21.1161 65.533 18.776H79.1359ZM71.0708 12.4818C73.9573 12.3704 76.3076 14.1616 76.8894 16.9773H65.8011C66.0996 14.498 68.3487 12.5931 71.0708 12.4893V12.4818Z" fill="#0F46D2"/>
<path d="M98.0541 18.4351C98.032 16.5222 97.3185 14.6819 96.0454 13.254C93.3587 10.1018 89.0352 9.86908 86.1613 11.4831C81.9289 13.8612 80.7626 19.4648 83.5885 23.4164C84.1756 24.2415 84.9205 24.942 85.7803 25.4772C86.64 26.0123 87.5973 26.3716 88.5969 26.5342C89.5964 26.6968 90.6183 26.6595 91.6033 26.4244C92.5883 26.1892 93.5169 25.761 94.3352 25.1645C94.9222 24.737 95.3472 24.1526 95.9366 23.4645V26.728C96.6439 26.7836 97.3544 26.7836 98.0617 26.728C98.0617 23.9097 98.087 21.1724 98.0541 18.4351ZM95.6153 18.8576C95.3396 22.1818 92.1292 25.5895 88.0865 24.3803C86.3283 23.8541 85.0912 22.4677 84.4714 20.6513C83.3127 17.2486 85.248 13.5348 88.7367 12.6772C92.0913 11.855 95.2713 14.3165 95.5243 17.2309C95.599 17.7698 95.6295 18.3138 95.6153 18.8576Z" fill="#0F46D2"/>
<path d="M103.499 26.6193V5.36863C102.842 5.31651 102.183 5.32159 101.528 5.38381V26.6193H103.499Z" fill="#0F46D2"/>
<path d="M128.898 5.87402V26.5454C129.568 26.6679 130.255 26.6602 130.922 26.5226V5.87402H128.898Z" fill="#0F46D2"/>
<path d="M27.3043 0.814453H9.66115L0.875 16.0593L9.66874 31.3016H27.3144L36.0727 16.0568L27.3043 0.814453ZM27.0032 30.7805H17.4202V28.0432C18.7357 27.7244 19.5326 26.8111 19.95 25.5336H30.0188L27.0032 30.7805ZM16.6587 26.6846C16.4118 26.682 16.1678 26.6306 15.9408 26.5332C15.7139 26.4359 15.5084 26.2946 15.3363 26.1176C15.1642 25.9405 15.0288 25.7311 14.9379 25.5015C14.847 25.2719 14.8025 25.0266 14.8069 24.7797C14.8035 24.2809 14.9982 23.8012 15.3483 23.4459C15.6984 23.0906 16.1751 22.8888 16.6739 22.8848C17.1726 22.8948 17.6487 23.0949 18.0047 23.4444C18.3607 23.7938 18.5697 24.266 18.589 24.7645C18.5817 25.2732 18.3757 25.759 18.015 26.1178C17.6543 26.4766 17.1675 26.6801 16.6587 26.6846ZM19.9779 24.0536C19.1329 22.0651 17.9717 21.3062 16.1679 21.5263C14.7031 21.7135 13.6178 22.8367 13.4003 24.3875C13.17 26.0269 13.9847 27.221 15.9301 28.0761V30.7602H9.92678L6.73918 25.2148L14.5589 17.4608H22.1712C23.1376 19.5328 24.4734 20.3828 26.1532 19.9907C26.9017 19.8289 27.5731 19.4176 28.0571 18.8242C28.5412 18.2307 28.8092 17.4904 28.8171 16.7246C28.8007 15.9614 28.5293 15.2256 28.046 14.6346C27.5627 14.0435 26.8955 13.6313 26.1507 13.4637C24.4177 13.1221 23.0314 13.9949 22.1889 15.9935H13.7696C11.1386 18.5993 8.55055 21.1595 5.9271 23.7627L1.47457 16.0568L9.93184 1.34319H14.8903V6.42312L9.04387 12.2721C7.05035 11.3614 5.48438 11.6245 4.42184 13.0513C3.98552 13.6659 3.76546 14.4079 3.79613 15.161C3.8268 15.9142 4.10649 16.6358 4.59134 17.2129C5.09962 17.7997 5.79815 18.1889 6.56457 18.3124C7.33099 18.4359 8.11643 18.2858 8.78329 17.8884C10.3012 17.0105 10.7136 15.4901 10.0103 13.3347C11.045 12.3227 12.11 11.2652 13.1675 10.2103C14.225 9.15535 15.247 8.11306 16.3475 7.00245V1.35078H27.0058L28.7767 4.42201H24.7036L20.8633 8.36857C18.7888 7.45529 17.1798 7.77658 16.178 9.24895C15.7424 9.87877 15.537 10.6394 15.5965 11.4029C15.6559 12.1664 15.9765 12.8861 16.5044 13.4409C17.0341 13.9945 17.7392 14.3474 18.4998 14.4396C19.2604 14.5319 20.0294 14.3577 20.6761 13.9469C22.0144 13.0766 22.7 11.3032 21.8145 9.46905L25.5132 5.89944H29.609L35.4883 16.0517C33.9536 18.7114 32.4154 21.3787 30.8739 24.0536H19.9779ZM23.5753 16.7525C23.5729 16.4993 23.6213 16.2481 23.7177 16.014C23.8141 15.7798 23.9565 15.5674 24.1365 15.3893C24.3165 15.2112 24.5304 15.071 24.7656 14.9771C25.0008 14.8831 25.2524 14.8373 25.5056 14.8424C25.753 14.8406 25.9983 14.8888 26.2266 14.9844C26.4548 15.0799 26.6614 15.2207 26.8337 15.3982C27.0061 15.5758 27.1407 15.7865 27.2294 16.0175C27.3181 16.2485 27.3591 16.4951 27.3498 16.7424C27.3542 16.9898 27.309 17.2356 27.2168 17.4653C27.1246 17.6949 26.9873 17.9038 26.813 18.0795C26.6387 18.2552 26.431 18.3942 26.2021 18.4882C25.9732 18.5823 25.7277 18.6295 25.4803 18.6271C24.9812 18.6239 24.5031 18.4263 24.1474 18.0763C23.7917 17.7263 23.5865 17.2514 23.5753 16.7525ZM8.98821 15.0701C8.97495 15.57 8.76512 16.0446 8.40423 16.3908C8.04334 16.737 7.56051 16.9269 7.06047 16.9194C6.56056 16.9075 6.08577 16.6979 5.74009 16.3366C5.39441 15.9753 5.20603 15.4916 5.21621 14.9917C5.22275 14.4923 5.42387 14.0151 5.7768 13.6617C6.12973 13.3083 6.60661 13.1066 7.10601 13.0994C7.35994 13.1049 7.61026 13.1607 7.84255 13.2634C8.07484 13.3662 8.2845 13.5139 8.45946 13.698C8.63442 13.8821 8.77121 14.0991 8.86196 14.3363C8.95271 14.5735 8.99562 14.8264 8.98821 15.0802V15.0701ZM20.7748 11.1362C20.7789 11.6365 20.5863 12.1184 20.2385 12.4781C19.8907 12.8377 19.4155 13.0463 18.9153 13.0589C18.4056 13.0465 17.9206 12.8367 17.5624 12.4739C17.2043 12.111 17.0009 11.6233 16.9952 11.1135C17.0143 10.6147 17.2227 10.1419 17.578 9.79136C17.9333 9.44077 18.4088 9.23868 18.9077 9.22619C19.407 9.23678 19.8822 9.44276 20.2313 9.79989C20.5804 10.157 20.7755 10.6368 20.7748 11.1362Z" fill="#0F46D2"/>
<path d="M27.2739 0.758789H9.67633L0.875 15.9986L9.67633 31.2409H27.2739L36.0727 15.9986L27.2739 0.758789Z" stroke="#0F46D2" stroke-width="1.49429" stroke-miterlimit="10"/>
</g>
<defs>
<clipPath id="clip0_1090_1941">
<rect width="130.927" height="32" fill="white"/>
</clipPath>
</defs>
</svg>
