    <svg width="16" height="12" viewBox="0 0 16 12" fill="none" xmlns="http://www.w3.org/2000/svg">
    <path d="M6.2372 11.8632C6.10875 11.8628 5.98175 11.836 5.8641 11.7844C5.74645 11.7328 5.64066 11.6576 5.55331 11.5634L1.00028 6.71998C0.830081 6.5386 0.738906 6.29704 0.746812 6.04844C0.754718 5.79983 0.861058 5.56455 1.04244 5.39435C1.22382 5.22416 1.46538 5.13298 1.71398 5.14089C1.96258 5.14879 2.19786 5.25513 2.36806 5.43651L6.22784 9.54923L14.1066 0.93032C14.1866 0.830756 14.2861 0.748588 14.3989 0.688863C14.5118 0.629138 14.6357 0.593118 14.763 0.583015C14.8903 0.572912 15.0183 0.588939 15.1392 0.630112C15.26 0.671285 15.3712 0.736734 15.4659 0.82244C15.5605 0.908145 15.6367 1.0123 15.6896 1.1285C15.7426 1.2447 15.7712 1.3705 15.7738 1.49817C15.7763 1.62584 15.7527 1.75269 15.7045 1.87092C15.6562 1.98914 15.5843 2.09626 15.4932 2.18568L6.93046 11.5541C6.84394 11.65 6.73852 11.7269 6.62083 11.7801C6.50314 11.8333 6.37572 11.8616 6.24657 11.8632H6.2372Z" fill="white"/>
    </svg>